<svg id="e9dc84bb-e34b-4983-9a2d-6e5ca2f978d2" data-name="Layer 1" xmlns="http://www.w3.org/2000/svg" viewBox="0 0 100 100"><defs><style>.bcf5b7ad-9c41-48c3-ac84-d5216a1c8ce5{fill:#ffcb60;}.b3f8ac07-1c47-4a73-b48e-54455ffbd2ed{fill:#7e61ff;}.ac9a4fe0-55db-4438-b547-4e73594171c0{fill:#ff5f7d;}.a8bc5fee-57d3-41b0-8c9c-4d1dbb57f653{fill:#5a3dbe;}.b75e3a70-7209-414a-b917-7915d3712a07{fill:#5fd7aa;}.b3ecf663-164b-4284-be6e-f100a8b1e8a6{fill:#3fb3a3;}.bd956965-f6be-4fcc-af49-295339a8b619{fill:#ff9c5b;}</style></defs><path class="bcf5b7ad-9c41-48c3-ac84-d5216a1c8ce5" d="M50,88.88913V100A49.67168,49.67168,0,0,1,14.64445,85.35586,50.17276,50.17276,0,0,1,6.68222,75.01164l9.64666-5.56877A38.90911,38.90911,0,0,0,50,88.88913Z"/><path class="b3f8ac07-1c47-4a73-b48e-54455ffbd2ed" d="M93.32074,24.99205l-9.64446,5.57027a38.91373,38.91373,0,0,0-33.674-19.45145V0A49.67164,49.67164,0,0,1,85.35778,14.64415,50.28143,50.28143,0,0,1,93.32074,24.99205Z"/><path class="ac9a4fe0-55db-4438-b547-4e73594171c0" d="M50.00224,0V11.11087a38.91355,38.91355,0,0,0-33.674,19.444L6.68373,24.98468a50.23912,50.23912,0,0,1,7.963-10.34053A49.6717,49.6717,0,0,1,50.00224,0Z"/><path class="a8bc5fee-57d3-41b0-8c9c-4d1dbb57f653" d="M100,50a49.858,49.858,0,0,1-4.17037,20.05186v.00737l-9.71852-5.61479A38.87822,38.87822,0,0,0,83.674,30.563l9.64445-5.57038A49.657,49.657,0,0,1,100,50Z"/><path class="b75e3a70-7209-414a-b917-7915d3712a07" d="M95.82963,70.05923a49.66822,49.66822,0,0,1-5.57039,9.60743L72.91106,69.65183A12.52309,12.52309,0,0,1,66.66667,58.8222V50.24441A16.66311,16.66311,0,0,0,35.5778,41.66667l-9.62963-5.563A27.7777,27.7777,0,0,1,77.77778,50v6.74072a5.02024,5.02024,0,0,0,2.49629,4.33336l5.837,3.37036Z"/><path class="b3ecf663-164b-4284-be6e-f100a8b1e8a6" d="M65.22967,73.22962A27.77829,27.77829,0,0,1,25.94817,36.1037l9.62963,5.563a16.54925,16.54925,0,0,0-2.19256,9.71851A16.71849,16.71849,0,0,0,50.26666,66.66667a14.47866,14.47866,0,0,0,3.25186-.31852,17.03968,17.03968,0,0,0,4.81481-1.926Z"/><polygon class="b75e3a70-7209-414a-b917-7915d3712a07" points="95.83 70.052 95.83 70.059 86.111 64.444 95.83 70.052"/><path class="bd956965-f6be-4fcc-af49-295339a8b619" d="M11.11111,50.00107a38.64293,38.64293,0,0,0,5.21777,19.4418L6.68222,75.01164a50.14459,50.14459,0,0,1,.00445-50.02782l9.64444,5.571A38.63851,38.63851,0,0,0,11.11111,50.00107Z"/></svg>